<svg width="23" height="23" viewBox="0 0 23 23" fill="none" xmlns="http://www.w3.org/2000/svg">
<path fill-rule="evenodd" clip-rule="evenodd" d="M23 11.5C23 17.8513 17.8513 23 11.5 23C5.14873 23 0 17.8513 0 11.5C0 5.14873 5.14873 0 11.5 0C17.8513 0 23 5.14873 23 11.5ZM9.31382 16.9557C8.91207 16.5767 8.8936 15.9438 9.27257 15.5421L13.0856 11.4998L9.29289 7.70711C8.90237 7.31658 8.90237 6.68342 9.29289 6.29289C9.68342 5.90237 10.3166 5.90237 10.7071 6.29289L15.1866 10.7724C15.5691 11.1549 15.5781 11.7722 15.2069 12.1657L10.7274 16.9145C10.3485 17.3162 9.71557 17.3347 9.31382 16.9557Z" fill="#D8D8D8"/>
</svg>
