<svg width="240" height="60" viewBox="0 0 240 60" fill="none" xmlns="http://www.w3.org/2000/svg">
<path d="M98.96 6.112L97.424 7.328C97.1467 6.944 96.768 6.656 96.288 6.464C95.8187 6.26133 95.3387 6.16 94.848 6.16C93.696 6.16 92.752 6.55467 92.016 7.344C91.2907 8.13333 90.928 9.12 90.928 10.304C90.928 11.5413 91.2747 12.5493 91.968 13.328C92.672 14.096 93.6053 14.48 94.768 14.48C95.9627 14.48 96.88 14.0427 97.52 13.168L99.136 14.304C98.08 15.6267 96.6187 16.288 94.752 16.288C92.9813 16.288 91.5307 15.7333 90.4 14.624C89.2693 13.504 88.704 12.064 88.704 10.304C88.704 8.52267 89.28 7.09333 90.432 6.016C91.5947 4.928 93.0667 4.384 94.848 4.384C95.6373 4.384 96.4107 4.53333 97.168 4.832C97.936 5.12 98.5333 5.54667 98.96 6.112ZM100.389 16V4.672H102.405V14.208H107.221V16H100.389ZM107.532 10.304C107.532 8.512 108.097 7.07733 109.228 6C110.369 4.92267 111.825 4.384 113.596 4.384C115.388 4.384 116.855 4.92267 117.996 6C119.137 7.07733 119.708 8.512 119.708 10.304C119.708 12.064 119.132 13.504 117.98 14.624C116.839 15.7333 115.377 16.288 113.596 16.288C111.836 16.288 110.385 15.7333 109.244 14.624C108.103 13.504 107.532 12.064 107.532 10.304ZM109.724 10.304C109.724 11.52 110.087 12.5227 110.812 13.312C111.537 14.0907 112.471 14.48 113.612 14.48C114.764 14.48 115.703 14.0907 116.428 13.312C117.153 12.5227 117.516 11.52 117.516 10.304C117.516 9.12 117.153 8.13333 116.428 7.344C115.713 6.55467 114.775 6.16 113.612 6.16C112.46 6.16 111.521 6.55467 110.796 7.344C110.081 8.13333 109.724 9.12 109.724 10.304ZM124.539 16L120.059 4.672H122.315L125.435 13.392H125.499L128.651 4.672H130.827L126.283 16H124.539ZM131.92 16V4.672H139.424V6.432H133.936V9.312H139.136V11.008H133.936V14.208H139.712V16H131.92ZM141.686 16V4.672H145.622C146.379 4.672 147.056 4.77333 147.654 4.976C148.262 5.168 148.768 5.52 149.174 6.032C149.59 6.53333 149.798 7.16267 149.798 7.92C149.798 8.72 149.568 9.38667 149.11 9.92C148.651 10.4427 148.016 10.7947 147.206 10.976L150.23 16H147.798L145.174 11.2H143.702V16H141.686ZM143.702 9.552H145.35C146.971 9.552 147.782 9.00267 147.782 7.904C147.782 7.34933 147.563 6.95467 147.126 6.72C146.688 6.48533 146.155 6.368 145.526 6.368H143.702V9.552ZM89.248 36V24.672H91.92L97.184 33.152H97.216V24.672H99.232V36H96.672L91.296 27.248H91.264V36H89.248ZM101.732 36V24.672H103.748V36H101.732ZM106.248 36V24.672H108.264V29.568H108.312L113.048 24.672H115.768L110.472 29.904L116.12 36H113.288L108.312 30.32H108.264V36H106.248ZM117.279 36V24.672H119.295V29.248H124.591V24.672H126.607V36H124.591V30.976H119.295V36H117.279ZM128.563 30.304C128.563 28.512 129.129 27.0773 130.259 26C131.401 24.9227 132.857 24.384 134.627 24.384C136.419 24.384 137.886 24.9227 139.027 26C140.169 27.0773 140.739 28.512 140.739 30.304C140.739 32.064 140.163 33.504 139.011 34.624C137.87 35.7333 136.409 36.288 134.627 36.288C132.867 36.288 131.417 35.7333 130.275 34.624C129.134 33.504 128.563 32.064 128.563 30.304ZM130.755 30.304C130.755 31.52 131.118 32.5227 131.843 33.312C132.569 34.0907 133.502 34.48 134.643 34.48C135.795 34.48 136.734 34.0907 137.459 33.312C138.185 32.5227 138.547 31.52 138.547 30.304C138.547 29.12 138.185 28.1333 137.459 27.344C136.745 26.5547 135.806 26.16 134.643 26.16C133.491 26.16 132.553 26.5547 131.827 27.344C131.113 28.1333 130.755 29.12 130.755 30.304ZM142.686 36V24.672H144.702V34.208H149.517V36H142.686ZM149.481 36L154.409 24.672H156.153L161.033 36H158.729L157.673 33.408H152.761L151.737 36H149.481ZM153.449 31.68H156.969L155.225 27.072L153.449 31.68ZM165.873 36V24.672H167.889V29.568H167.937L172.673 24.672H175.393L170.097 29.904L175.745 36H172.913L167.937 30.32H167.889V36H165.873ZM176.904 36V24.672H178.92V29.248H184.216V24.672H186.232V36H184.216V30.976H178.92V36H176.904ZM188.732 36V24.672H190.748V34.208H195.564V36H188.732ZM205.538 24.672V31.84C205.538 33.184 205.106 34.2613 204.242 35.072C203.388 35.8827 202.3 36.288 200.978 36.288C199.655 36.288 198.562 35.8827 197.698 35.072C196.844 34.2613 196.418 33.184 196.418 31.84V24.672H198.434V31.76C198.434 32.5173 198.636 33.1627 199.042 33.696C199.447 34.2187 200.092 34.48 200.978 34.48C201.863 34.48 202.508 34.2187 202.914 33.696C203.319 33.1627 203.522 32.5173 203.522 31.76V24.672H205.538ZM215.024 25.6L213.712 27.04C213.498 26.752 213.194 26.5173 212.8 26.336C212.416 26.1547 212.026 26.064 211.632 26.064C211.109 26.064 210.645 26.1973 210.24 26.464C209.834 26.72 209.632 27.104 209.632 27.616C209.632 27.872 209.674 28.0907 209.76 28.272C209.856 28.4427 210.016 28.5973 210.24 28.736C210.474 28.8747 210.693 28.9813 210.896 29.056C211.098 29.1307 211.397 29.232 211.792 29.36C212.165 29.4773 212.469 29.5787 212.704 29.664C212.949 29.7493 213.237 29.888 213.568 30.08C213.909 30.2613 214.176 30.4587 214.368 30.672C214.57 30.8853 214.741 31.168 214.88 31.52C215.029 31.8613 215.104 32.2453 215.104 32.672C215.104 33.8347 214.709 34.7307 213.92 35.36C213.141 35.9787 212.16 36.288 210.976 36.288C210.218 36.288 209.488 36.1493 208.784 35.872C208.09 35.584 207.525 35.184 207.088 34.672L208.528 33.328C208.805 33.7013 209.173 34.0053 209.632 34.24C210.09 34.464 210.549 34.576 211.008 34.576C211.552 34.576 212.026 34.4373 212.432 34.16C212.848 33.8827 213.056 33.4613 213.056 32.896C213.056 32.704 213.029 32.5333 212.976 32.384C212.922 32.224 212.821 32.08 212.672 31.952C212.533 31.824 212.41 31.7227 212.304 31.648C212.197 31.5627 212.005 31.472 211.728 31.376C211.461 31.2693 211.269 31.1947 211.152 31.152C211.034 31.1093 210.8 31.0347 210.448 30.928C210.042 30.8 209.696 30.6667 209.408 30.528C209.12 30.3893 208.821 30.2027 208.512 29.968C208.213 29.7227 207.984 29.4133 207.824 29.04C207.664 28.656 207.584 28.2133 207.584 27.712C207.584 26.6347 207.989 25.8133 208.799 25.248C209.621 24.672 210.597 24.384 211.728 24.384C212.325 24.384 212.917 24.4907 213.504 24.704C214.101 24.9067 214.608 25.2053 215.024 25.6ZM216.579 30.304C216.579 28.512 217.144 27.0773 218.275 26C219.416 24.9227 220.872 24.384 222.643 24.384C224.435 24.384 225.902 24.9227 227.043 26C228.184 27.0773 228.755 28.512 228.755 30.304C228.755 32.064 228.179 33.504 227.027 34.624C225.886 35.7333 224.424 36.288 222.643 36.288C220.883 36.288 219.432 35.7333 218.291 34.624C217.15 33.504 216.579 32.064 216.579 30.304ZM218.771 30.304C218.771 31.52 219.134 32.5227 219.859 33.312C220.584 34.0907 221.518 34.48 222.659 34.48C223.811 34.48 224.75 34.0907 225.475 33.312C226.2 32.5227 226.563 31.52 226.563 30.304C226.563 29.12 226.2 28.1333 225.475 27.344C224.76 26.5547 223.822 26.16 222.659 26.16C221.507 26.16 220.568 26.5547 219.843 27.344C219.128 28.1333 218.771 29.12 218.771 30.304ZM233.586 36L229.106 24.672H231.362L234.482 33.392H234.546L237.698 24.672H239.874L235.33 36H233.586ZM96.336 45.6L95.024 47.04C94.8107 46.752 94.5067 46.5173 94.112 46.336C93.728 46.1547 93.3387 46.064 92.944 46.064C92.4213 46.064 91.9573 46.1973 91.552 46.464C91.1467 46.72 90.944 47.104 90.944 47.616C90.944 47.872 90.9867 48.0907 91.072 48.272C91.168 48.4427 91.328 48.5973 91.552 48.736C91.7867 48.8747 92.0053 48.9813 92.208 49.056C92.4107 49.1307 92.7093 49.232 93.104 49.36C93.4773 49.4773 93.7813 49.5787 94.016 49.664C94.2613 49.7493 94.5493 49.888 94.88 50.08C95.2213 50.2613 95.488 50.4587 95.68 50.672C95.8827 50.8853 96.0533 51.168 96.192 51.52C96.3413 51.8613 96.416 52.2453 96.416 52.672C96.416 53.8347 96.0213 54.7307 95.232 55.36C94.4533 55.9787 93.472 56.288 92.288 56.288C91.5307 56.288 90.8 56.1493 90.096 55.872C89.4027 55.584 88.8373 55.184 88.4 54.672L89.84 53.328C90.1173 53.7013 90.4853 54.0053 90.944 54.24C91.4027 54.464 91.8613 54.576 92.32 54.576C92.864 54.576 93.3387 54.4373 93.744 54.16C94.16 53.8827 94.368 53.4613 94.368 52.896C94.368 52.704 94.3413 52.5333 94.288 52.384C94.2347 52.224 94.1333 52.08 93.984 51.952C93.8453 51.824 93.7227 51.7227 93.616 51.648C93.5093 51.5627 93.3173 51.472 93.04 51.376C92.7733 51.2693 92.5813 51.1947 92.464 51.152C92.3467 51.1093 92.112 51.0347 91.76 50.928C91.3547 50.8 91.008 50.6667 90.72 50.528C90.432 50.3893 90.1333 50.2027 89.824 49.968C89.5253 49.7227 89.296 49.4133 89.136 49.04C88.976 48.656 88.896 48.2133 88.896 47.712C88.896 46.6347 89.3013 45.8133 90.112 45.248C90.9333 44.672 91.9093 44.384 93.04 44.384C93.6373 44.384 94.2293 44.4907 94.816 44.704C95.4133 44.9067 95.92 45.2053 96.336 45.6ZM100.474 56V46.432H97.0015V44.672H105.962V46.432H102.49V56H100.474ZM116.303 44.672V51.84C116.303 53.184 115.871 54.2613 115.007 55.072C114.154 55.8827 113.066 56.288 111.743 56.288C110.421 56.288 109.327 55.8827 108.463 55.072C107.61 54.2613 107.183 53.184 107.183 51.84V44.672H109.199V51.76C109.199 52.5173 109.402 53.1627 109.807 53.696C110.213 54.2187 110.858 54.48 111.743 54.48C112.629 54.48 113.274 54.2187 113.679 53.696C114.085 53.1627 114.287 52.5173 114.287 51.76V44.672H116.303ZM118.701 56V44.672H122.717C123.506 44.672 124.253 44.7733 124.957 44.976C125.661 45.168 126.322 45.4773 126.941 45.904C127.56 46.32 128.05 46.912 128.413 47.68C128.786 48.4373 128.973 49.3227 128.973 50.336C128.973 51.2853 128.786 52.1333 128.413 52.88C128.05 53.6267 127.56 54.224 126.941 54.672C126.333 55.1093 125.666 55.44 124.941 55.664C124.226 55.888 123.485 56 122.717 56H118.701ZM120.717 54.24H122.397C122.834 54.24 123.25 54.2027 123.645 54.128C124.05 54.0533 124.45 53.9253 124.845 53.744C125.24 53.552 125.576 53.3173 125.853 53.04C126.141 52.752 126.37 52.3787 126.541 51.92C126.722 51.4507 126.813 50.9227 126.813 50.336C126.813 47.712 125.341 46.4 122.397 46.4H120.717V54.24ZM130.92 56V44.672H132.936V56H130.92ZM134.892 50.304C134.892 48.512 135.457 47.0773 136.588 46C137.729 44.9227 139.185 44.384 140.956 44.384C142.748 44.384 144.214 44.9227 145.356 46C146.497 47.0773 147.068 48.512 147.068 50.304C147.068 52.064 146.492 53.504 145.34 54.624C144.198 55.7333 142.737 56.288 140.956 56.288C139.196 56.288 137.745 55.7333 136.604 54.624C135.462 53.504 134.892 52.064 134.892 50.304ZM137.084 50.304C137.084 51.52 137.446 52.5227 138.172 53.312C138.897 54.0907 139.83 54.48 140.972 54.48C142.124 54.48 143.062 54.0907 143.788 53.312C144.513 52.5227 144.876 51.52 144.876 50.304C144.876 49.12 144.513 48.1333 143.788 47.344C143.073 46.5547 142.134 46.16 140.972 46.16C139.82 46.16 138.881 46.5547 138.156 47.344C137.441 48.1333 137.084 49.12 137.084 50.304Z" fill="white"/>
<path fill-rule="evenodd" clip-rule="evenodd" d="M65.3008 3H38.668L22 28.2031L38.668 55.6914H65.3008L46.127 29.3457L65.3008 3Z" fill="#363636"/>
<path fill-rule="evenodd" clip-rule="evenodd" d="M0 4H26.6328L43.3008 29.2031L26.6328 56.6914H0L19.1738 30.3457L0 4Z" fill="#D8D8D8"/>
<path fill-rule="evenodd" clip-rule="evenodd" d="M18.9434 30L43.3008 29.3457L27.6779 4H0L18.9434 30Z" fill="#949494"/>
</svg>
