<svg width="239" height="60" viewBox="0 0 239 60" fill="none" xmlns="http://www.w3.org/2000/svg">
<path d="M93.136 14.432C92.0587 15.68 90.592 16.304 88.736 16.304C86.976 16.304 85.52 15.7493 84.368 14.64C83.216 13.52 82.64 12.08 82.64 10.32C82.64 8.53867 83.2213 7.104 84.384 6.016C85.5573 4.91733 87.024 4.368 88.784 4.368C89.6053 4.368 90.4 4.51733 91.168 4.816C91.9467 5.104 92.5653 5.50933 93.024 6.032L91.168 7.888C90.9227 7.54667 90.592 7.29067 90.176 7.12C89.7707 6.93867 89.3387 6.848 88.88 6.848C87.9307 6.848 87.1467 7.17867 86.528 7.84C85.92 8.49067 85.616 9.31733 85.616 10.32C85.616 11.344 85.9147 12.1813 86.512 12.832C87.1093 13.472 87.8827 13.792 88.832 13.792C89.888 13.792 90.688 13.408 91.232 12.64L93.136 14.432ZM101.445 16H94.3086V4.672H97.0606V13.616H101.445V16ZM114.054 10.288C114.054 12.0693 113.473 13.52 112.31 14.64C111.147 15.7493 109.67 16.304 107.878 16.304C106.097 16.304 104.625 15.7493 103.462 14.64C102.299 13.52 101.718 12.0693 101.718 10.288C101.718 8.496 102.294 7.06133 103.446 5.984C104.609 4.90667 106.086 4.368 107.878 4.368C109.681 4.368 111.158 4.90667 112.31 5.984C113.473 7.06133 114.054 8.496 114.054 10.288ZM111.126 10.288C111.126 9.28533 110.822 8.45867 110.214 7.808C109.606 7.15733 108.827 6.832 107.878 6.832C106.929 6.832 106.15 7.15733 105.542 7.808C104.945 8.45867 104.646 9.28533 104.646 10.288C104.646 11.312 104.945 12.1547 105.542 12.816C106.15 13.4773 106.929 13.808 107.878 13.808C108.827 13.808 109.606 13.4773 110.214 12.816C110.822 12.1547 111.126 11.312 111.126 10.288ZM125.652 4.672L121.284 16H118.548L114.26 4.672H117.332L119.956 12.704H120.02L122.628 4.672H125.652ZM134.478 16H126.574V4.672H134.19V6.992H129.214V9.12H133.918V11.312H129.214V13.664H134.478V16ZM145.557 16H142.357L139.909 11.504H138.981V16H136.293V4.672H140.613C141.189 4.672 141.722 4.73067 142.213 4.848C142.704 4.96533 143.162 5.152 143.589 5.408C144.016 5.664 144.346 6.02133 144.581 6.48C144.826 6.93867 144.949 7.47733 144.949 8.096C144.949 8.84267 144.741 9.48267 144.325 10.016C143.909 10.5493 143.333 10.928 142.597 11.152L145.557 16ZM142.245 8.144C142.245 7.30133 141.637 6.88 140.421 6.88H138.965V9.52H140.261C141.584 9.52 142.245 9.06133 142.245 8.144ZM93.472 36H90.368L85.808 28.592H85.76L85.824 36H83.168V24.672H86.288L90.832 32.064H90.88L90.816 24.672H93.472V36ZM98.5606 36H95.8086V24.672H98.5606V36ZM111.398 36H107.83L103.622 30.784H103.59V36H100.902V24.672H103.59V29.28H103.638L107.686 24.672H111.11L106.23 29.888L111.398 36ZM122.165 36H119.429V31.264H115.013V36H112.277V24.672H115.013V28.96H119.429V24.672H122.165V36ZM136.304 30.288C136.304 32.0693 135.723 33.52 134.56 34.64C133.397 35.7493 131.92 36.304 130.128 36.304C128.347 36.304 126.875 35.7493 125.712 34.64C124.549 33.52 123.968 32.0693 123.968 30.288C123.968 28.496 124.544 27.0613 125.696 25.984C126.859 24.9067 128.336 24.368 130.128 24.368C131.931 24.368 133.408 24.9067 134.56 25.984C135.723 27.0613 136.304 28.496 136.304 30.288ZM133.376 30.288C133.376 29.2853 133.072 28.4587 132.464 27.808C131.856 27.1573 131.077 26.832 130.128 26.832C129.179 26.832 128.4 27.1573 127.792 27.808C127.195 28.4587 126.896 29.2853 126.896 30.288C126.896 31.312 127.195 32.1547 127.792 32.816C128.4 33.4773 129.179 33.808 130.128 33.808C131.077 33.808 131.856 33.4773 132.464 32.816C133.072 32.1547 133.376 31.312 133.376 30.288ZM145.242 36H138.106V24.672H140.858V33.616H145.242V36ZM157.247 36H154.207L153.327 33.776H148.943L148.111 36H145.135L149.887 24.672H152.543L157.247 36ZM152.575 31.584L151.167 27.696L149.727 31.584H152.575ZM172.398 36H168.83L164.622 30.784H164.59V36H161.902V24.672H164.59V29.28H164.638L168.686 24.672H172.11L167.23 29.888L172.398 36ZM183.165 36H180.429V31.264H176.013V36H173.277V24.672H176.013V28.96H180.429V24.672H183.165V36ZM192.632 36H185.496V24.672H188.248V33.616H192.632V36ZM203.127 31.728C203.127 33.0933 202.679 34.1973 201.783 35.04C200.898 35.8827 199.719 36.304 198.247 36.304C196.775 36.304 195.602 35.888 194.727 35.056C193.853 34.2133 193.415 33.104 193.415 31.728V24.672H196.135V31.504C196.135 32.176 196.311 32.736 196.663 33.184C197.015 33.6213 197.549 33.84 198.263 33.84C198.989 33.84 199.522 33.6213 199.863 33.184C200.215 32.736 200.391 32.176 200.391 31.504V24.672H203.127V31.728ZM213.068 25.776L211.324 27.616C211.1 27.328 210.796 27.0933 210.412 26.912C210.039 26.7307 209.671 26.64 209.308 26.64C208.881 26.64 208.508 26.7307 208.188 26.912C207.879 27.0827 207.724 27.3707 207.724 27.776C207.724 27.9573 207.761 28.1173 207.836 28.256C207.911 28.384 208.033 28.5013 208.204 28.608C208.385 28.704 208.561 28.7893 208.732 28.864C208.903 28.928 209.148 29.008 209.468 29.104C209.884 29.2427 210.209 29.3547 210.444 29.44C210.679 29.5253 210.977 29.6693 211.34 29.872C211.713 30.064 212.001 30.2667 212.204 30.48C212.407 30.6933 212.588 30.9813 212.748 31.344C212.908 31.696 212.988 32.0853 212.988 32.512C212.988 33.7387 212.567 34.6773 211.724 35.328C210.892 35.968 209.868 36.288 208.652 36.288C207.831 36.288 207.041 36.144 206.284 35.856C205.527 35.568 204.903 35.168 204.412 34.656L206.204 32.832C206.481 33.184 206.844 33.472 207.292 33.696C207.751 33.92 208.204 34.032 208.652 34.032C209.111 34.032 209.484 33.936 209.772 33.744C210.071 33.5413 210.22 33.2267 210.22 32.8C210.22 32.6293 210.177 32.48 210.092 32.352C210.017 32.2133 209.932 32.1013 209.836 32.016C209.74 31.92 209.569 31.8187 209.324 31.712C209.079 31.6053 208.871 31.5253 208.7 31.472C208.529 31.408 208.252 31.312 207.868 31.184C207.452 31.0453 207.095 30.9013 206.796 30.752C206.497 30.6027 206.199 30.4053 205.9 30.16C205.601 29.9147 205.372 29.6053 205.212 29.232C205.052 28.8587 204.972 28.4267 204.972 27.936C204.972 27.3387 205.1 26.8053 205.356 26.336C205.612 25.856 205.953 25.4827 206.38 25.216C206.807 24.9387 207.271 24.7307 207.772 24.592C208.284 24.4533 208.812 24.384 209.356 24.384C210.017 24.384 210.679 24.5067 211.34 24.752C212.012 24.9867 212.588 25.328 213.068 25.776ZM226.601 30.288C226.601 32.0693 226.02 33.52 224.857 34.64C223.694 35.7493 222.217 36.304 220.425 36.304C218.644 36.304 217.172 35.7493 216.009 34.64C214.846 33.52 214.265 32.0693 214.265 30.288C214.265 28.496 214.841 27.0613 215.993 25.984C217.156 24.9067 218.633 24.368 220.425 24.368C222.228 24.368 223.705 24.9067 224.857 25.984C226.02 27.0613 226.601 28.496 226.601 30.288ZM223.673 30.288C223.673 29.2853 223.369 28.4587 222.761 27.808C222.153 27.1573 221.374 26.832 220.425 26.832C219.476 26.832 218.697 27.1573 218.089 27.808C217.492 28.4587 217.193 29.2853 217.193 30.288C217.193 31.312 217.492 32.1547 218.089 32.816C218.697 33.4773 219.476 33.808 220.425 33.808C221.374 33.808 222.153 33.4773 222.761 32.816C223.369 32.1547 223.673 31.312 223.673 30.288ZM238.199 24.672L233.831 36H231.095L226.807 24.672H229.879L232.503 32.704H232.567L235.175 24.672H238.199ZM90.896 45.776L89.152 47.616C88.928 47.328 88.624 47.0933 88.24 46.912C87.8667 46.7307 87.4987 46.64 87.136 46.64C86.7093 46.64 86.336 46.7307 86.016 46.912C85.7067 47.0827 85.552 47.3707 85.552 47.776C85.552 47.9573 85.5893 48.1173 85.664 48.256C85.7387 48.384 85.8613 48.5013 86.032 48.608C86.2133 48.704 86.3893 48.7893 86.56 48.864C86.7307 48.928 86.976 49.008 87.296 49.104C87.712 49.2427 88.0373 49.3547 88.272 49.44C88.5067 49.5253 88.8053 49.6693 89.168 49.872C89.5413 50.064 89.8293 50.2667 90.032 50.48C90.2347 50.6933 90.416 50.9813 90.576 51.344C90.736 51.696 90.816 52.0853 90.816 52.512C90.816 53.7387 90.3947 54.6773 89.552 55.328C88.72 55.968 87.696 56.288 86.48 56.288C85.6587 56.288 84.8693 56.144 84.112 55.856C83.3547 55.568 82.7307 55.168 82.24 54.656L84.032 52.832C84.3093 53.184 84.672 53.472 85.12 53.696C85.5787 53.92 86.032 54.032 86.48 54.032C86.9387 54.032 87.312 53.936 87.6 53.744C87.8987 53.5413 88.048 53.2267 88.048 52.8C88.048 52.6293 88.0053 52.48 87.92 52.352C87.8453 52.2133 87.76 52.1013 87.664 52.016C87.568 51.92 87.3973 51.8187 87.152 51.712C86.9067 51.6053 86.6987 51.5253 86.528 51.472C86.3573 51.408 86.08 51.312 85.696 51.184C85.28 51.0453 84.9227 50.9013 84.624 50.752C84.3253 50.6027 84.0267 50.4053 83.728 50.16C83.4293 49.9147 83.2 49.6053 83.04 49.232C82.88 48.8587 82.8 48.4267 82.8 47.936C82.8 47.3387 82.928 46.8053 83.184 46.336C83.44 45.856 83.7813 45.4827 84.208 45.216C84.6347 44.9387 85.0987 44.7307 85.6 44.592C86.112 44.4533 86.64 44.384 87.184 44.384C87.8453 44.384 88.5067 44.5067 89.168 44.752C89.84 44.9867 90.416 45.328 90.896 45.776ZM100.466 47.008H97.266V56H94.53V47.008H91.33V44.672H100.466V47.008ZM111.315 51.728C111.315 53.0933 110.867 54.1973 109.971 55.04C109.086 55.8827 107.907 56.304 106.435 56.304C104.963 56.304 103.79 55.888 102.915 55.056C102.04 54.2133 101.603 53.104 101.603 51.728V44.672H104.323V51.504C104.323 52.176 104.499 52.736 104.851 53.184C105.203 53.6213 105.736 53.84 106.451 53.84C107.176 53.84 107.71 53.6213 108.051 53.184C108.403 52.736 108.579 52.176 108.579 51.504V44.672H111.315V51.728ZM124.103 50.304C124.103 51.264 123.922 52.1173 123.559 52.864C123.197 53.6107 122.706 54.208 122.087 54.656C121.479 55.104 120.807 55.44 120.071 55.664C119.335 55.888 118.562 56 117.751 56H113.527V44.672H117.623C118.295 44.672 118.93 44.7307 119.527 44.848C120.135 44.9547 120.722 45.1467 121.287 45.424C121.853 45.7013 122.338 46.048 122.743 46.464C123.159 46.88 123.49 47.4187 123.735 48.08C123.981 48.7307 124.103 49.472 124.103 50.304ZM121.255 50.304C121.255 49.696 121.154 49.1733 120.951 48.736C120.749 48.288 120.466 47.9413 120.103 47.696C119.751 47.4507 119.362 47.2747 118.935 47.168C118.519 47.0613 118.061 47.008 117.559 47.008H116.199V53.632H117.495C118.594 53.632 119.495 53.3707 120.199 52.848C120.903 52.3253 121.255 51.4773 121.255 50.304ZM128.67 56H125.918V44.672H128.67V56ZM142.82 50.288C142.82 52.0693 142.238 53.52 141.076 54.64C139.913 55.7493 138.436 56.304 136.644 56.304C134.862 56.304 133.39 55.7493 132.228 54.64C131.065 53.52 130.484 52.0693 130.484 50.288C130.484 48.496 131.06 47.0613 132.212 45.984C133.374 44.9067 134.852 44.368 136.644 44.368C138.446 44.368 139.924 44.9067 141.076 45.984C142.238 47.0613 142.82 48.496 142.82 50.288ZM139.892 50.288C139.892 49.2853 139.588 48.4587 138.98 47.808C138.372 47.1573 137.593 46.832 136.644 46.832C135.694 46.832 134.916 47.1573 134.308 47.808C133.71 48.4587 133.412 49.2853 133.412 50.288C133.412 51.312 133.71 52.1547 134.308 52.816C134.916 53.4773 135.694 53.808 136.644 53.808C137.593 53.808 138.372 53.4773 138.98 52.816C139.588 52.1547 139.892 51.312 139.892 50.288Z" fill="#131313"/>
<path fill-rule="evenodd" clip-rule="evenodd" d="M65.3008 3H38.668L22 28.2031L38.668 55.6914H65.3008L46.127 29.3457L65.3008 3Z" fill="#363636"/>
<path fill-rule="evenodd" clip-rule="evenodd" d="M0 4H26.6328L43.3008 29.2031L26.6328 56.6914H0L19.1738 30.3457L0 4Z" fill="#D8D8D8"/>
<path fill-rule="evenodd" clip-rule="evenodd" d="M18.9434 30L43.3008 29.3457L27.6779 4H0L18.9434 30Z" fill="#949494"/>
</svg>
